<svg width="169" height="40" viewBox="0 0 169 40" fill="none" xmlns="http://www.w3.org/2000/svg">
<path d="M18.8881 24.9253L26.2861 6.49478H33.7526L22.2218 33.5839H14.7096L9.03547 11.9711C8.69297 10.6329 8.39613 10.1494 7.3458 9.58715C5.64471 8.66506 2.81336 7.81044 0.335938 7.28193L0.507188 6.49478H12.6089C14.1502 6.49478 15.5316 7.49558 15.8855 9.2498L18.8881 24.9253Z" fill="white"/>
<path d="M30.9213 33.5727L36.8009 6.49478H43.9135L38.0339 33.5727H30.9213Z" fill="white"/>
<path fill-rule="evenodd" clip-rule="evenodd" d="M73.5056 8.4739C74.0194 7.28193 75.1725 6.49478 76.5311 6.49478H82.6047L88.3359 33.5727H81.7599L80.9037 29.5245H71.7817L70.2975 33.5727H62.831L73.5056 8.4739ZM79.7392 23.9807L77.5814 13.8153L73.8481 23.9807H79.7392Z" fill="white"/>
<path d="M52.0765 22.3165C49.3821 21.0233 45.8087 18.853 45.8544 14.951C45.8886 9.67711 50.832 6 57.8647 6C60.6047 6 62.8082 6.58474 64.5093 7.21446L63.2648 12.9606C60.0796 11.51 57.2711 11.6112 56.255 11.7462C54.2 12.0048 53.2638 13.0394 53.241 14.0064C53.2135 15.2837 54.8191 16.1135 56.7492 17.111C59.6279 18.5988 63.2283 20.4595 63.2078 24.7341C63.1735 30.3679 58.2872 34 50.8206 34C47.6354 33.9663 44.5643 33.3141 42.9088 32.5606L44.1989 26.6233C44.2589 26.6506 44.3194 26.6782 44.3805 26.7061C46.0068 27.4486 48.0616 28.3867 51.5056 28.3325C53.5492 28.2988 55.7412 27.5004 55.7641 25.6787C55.7755 24.498 54.8393 23.6434 52.0765 22.3165Z" fill="white"/>
<g clip-path="url(#clip0_1293_35)">
<path d="M144.99 4.27734H127.682V35.7273H144.99V4.27734Z" fill="#FF5F00"/>
<path d="M128.784 20C128.784 13.6222 131.736 7.93889 136.336 4.27778C132.97 1.6 128.728 0 124.112 0C113.188 0 104.336 8.95556 104.336 20C104.336 31.0444 113.188 40 124.112 40C128.728 40 132.97 38.4 136.336 35.7222C131.736 32.0611 128.784 26.3778 128.784 20Z" fill="#EB001B"/>
<path d="M166.446 32.3947V31.7503H166.705V31.6169H166.05V31.7503H166.309V32.3947H166.446ZM167.719 32.3947V31.6169H167.521L167.289 32.1503L167.058 31.6169H166.86V32.3947H167.003V31.8114L167.218 32.3169H167.366L167.581 31.8114V32.4003H167.719V32.3947Z" fill="#F79E1B"/>
<path d="M168.336 20C168.336 31.0444 159.483 40 148.56 40C143.943 40 139.702 38.4 136.336 35.7222C140.936 32.0611 143.888 26.3778 143.888 20C143.888 13.6222 140.936 7.93889 136.336 4.27778C139.702 1.6 143.943 0 148.56 0C159.483 0 168.336 8.95556 168.336 20Z" fill="#F79E1B"/>
</g>
<defs>
<clipPath id="clip0_1293_35">
<rect width="64" height="40" fill="white" transform="translate(104.336)"/>
</clipPath>
</defs>
</svg>
